<svg xmlns="http://www.w3.org/2000/svg" viewBox="0 0 16 16" shape-rendering="crispEdges">
<rect x="1" y="1" width="4" height="6" fill="#14121f"/>
<rect x="11" y="1" width="4" height="6" fill="#14121f"/>
<rect x="4" y="2" width="8" height="4" fill="#14121f"/>
<rect x="2" y="2" width="2" height="4" fill="#ffd700"/>
<rect x="12" y="2" width="2" height="4" fill="#ffd700"/>
<rect x="4" y="3" width="8" height="2" fill="#ffd700"/>
<rect x="2" y="2" width="12" height="1" fill="#ffe873"/>
<rect x="3" y="8" width="10" height="7" fill="#14121f"/>
<rect x="4" y="9" width="8" height="5" fill="#b8860b"/>
<rect x="4" y="9" width="8" height="1" fill="#ffd700"/>
<rect x="5" y="11" width="1" height="1" fill="#ffffff"/>
<rect x="7" y="11" width="1" height="1" fill="#ffffff"/>
<rect x="9" y="11" width="1" height="1" fill="#ffffff"/>
<rect x="5" y="13" width="1" height="1" fill="#fff7e0"/>
<rect x="7" y="13" width="1" height="1" fill="#fff7e0"/>
<rect x="9" y="13" width="1" height="1" fill="#fff7e0"/>
</svg>
